<?xml version="1.0" standalone="no"?>
<svg xmlns="http://www.w3.org/2000/svg" version="1.1" width="168" height="168">
	<!-- Created with https://api.qrserver.com (QR Code API, see goQR.me/api for information) -->
	<title>QR Code</title>
	<desc>Agile Otter</desc>
	<rect style="fill:rgb(255, 255, 255);fill-opacity:1" x="0" y="0" width="168" height="168" />
	<g id="elements">
		<path style="fill:rgb(0, 0, 0)" d="M 0,0 l 8,0 0,8 -8,0 z M 8,0 l 8,0 0,8 -8,0 z M 16,0 l 8,0 0,8 -8,0 z M 24,0 l 8,0 0,8 -8,0 z M 32,0 l 8,0 0,8 -8,0 z M 40,0 l 8,0 0,8 -8,0 z M 48,0 l 8,0 0,8 -8,0 z M 80,0 l 8,0 0,8 -8,0 z M 88,0 l 8,0 0,8 -8,0 z M 96,0 l 8,0 0,8 -8,0 z M 112,0 l 8,0 0,8 -8,0 z M 120,0 l 8,0 0,8 -8,0 z M 128,0 l 8,0 0,8 -8,0 z M 136,0 l 8,0 0,8 -8,0 z M 144,0 l 8,0 0,8 -8,0 z M 152,0 l 8,0 0,8 -8,0 z M 160,0 l 8,0 0,8 -8,0 z M 0,8 l 8,0 0,8 -8,0 z M 48,8 l 8,0 0,8 -8,0 z M 64,8 l 8,0 0,8 -8,0 z M 72,8 l 8,0 0,8 -8,0 z M 80,8 l 8,0 0,8 -8,0 z M 96,8 l 8,0 0,8 -8,0 z M 112,8 l 8,0 0,8 -8,0 z M 160,8 l 8,0 0,8 -8,0 z M 0,16 l 8,0 0,8 -8,0 z M 16,16 l 8,0 0,8 -8,0 z M 24,16 l 8,0 0,8 -8,0 z M 32,16 l 8,0 0,8 -8,0 z M 48,16 l 8,0 0,8 -8,0 z M 80,16 l 8,0 0,8 -8,0 z M 88,16 l 8,0 0,8 -8,0 z M 96,16 l 8,0 0,8 -8,0 z M 112,16 l 8,0 0,8 -8,0 z M 128,16 l 8,0 0,8 -8,0 z M 136,16 l 8,0 0,8 -8,0 z M 144,16 l 8,0 0,8 -8,0 z M 160,16 l 8,0 0,8 -8,0 z M 0,24 l 8,0 0,8 -8,0 z M 16,24 l 8,0 0,8 -8,0 z M 24,24 l 8,0 0,8 -8,0 z M 32,24 l 8,0 0,8 -8,0 z M 48,24 l 8,0 0,8 -8,0 z M 64,24 l 8,0 0,8 -8,0 z M 72,24 l 8,0 0,8 -8,0 z M 96,24 l 8,0 0,8 -8,0 z M 112,24 l 8,0 0,8 -8,0 z M 128,24 l 8,0 0,8 -8,0 z M 136,24 l 8,0 0,8 -8,0 z M 144,24 l 8,0 0,8 -8,0 z M 160,24 l 8,0 0,8 -8,0 z M 0,32 l 8,0 0,8 -8,0 z M 16,32 l 8,0 0,8 -8,0 z M 24,32 l 8,0 0,8 -8,0 z M 32,32 l 8,0 0,8 -8,0 z M 48,32 l 8,0 0,8 -8,0 z M 72,32 l 8,0 0,8 -8,0 z M 96,32 l 8,0 0,8 -8,0 z M 112,32 l 8,0 0,8 -8,0 z M 128,32 l 8,0 0,8 -8,0 z M 136,32 l 8,0 0,8 -8,0 z M 144,32 l 8,0 0,8 -8,0 z M 160,32 l 8,0 0,8 -8,0 z M 0,40 l 8,0 0,8 -8,0 z M 48,40 l 8,0 0,8 -8,0 z M 64,40 l 8,0 0,8 -8,0 z M 88,40 l 8,0 0,8 -8,0 z M 112,40 l 8,0 0,8 -8,0 z M 160,40 l 8,0 0,8 -8,0 z M 0,48 l 8,0 0,8 -8,0 z M 8,48 l 8,0 0,8 -8,0 z M 16,48 l 8,0 0,8 -8,0 z M 24,48 l 8,0 0,8 -8,0 z M 32,48 l 8,0 0,8 -8,0 z M 40,48 l 8,0 0,8 -8,0 z M 48,48 l 8,0 0,8 -8,0 z M 64,48 l 8,0 0,8 -8,0 z M 80,48 l 8,0 0,8 -8,0 z M 96,48 l 8,0 0,8 -8,0 z M 112,48 l 8,0 0,8 -8,0 z M 120,48 l 8,0 0,8 -8,0 z M 128,48 l 8,0 0,8 -8,0 z M 136,48 l 8,0 0,8 -8,0 z M 144,48 l 8,0 0,8 -8,0 z M 152,48 l 8,0 0,8 -8,0 z M 160,48 l 8,0 0,8 -8,0 z M 72,56 l 8,0 0,8 -8,0 z M 0,64 l 8,0 0,8 -8,0 z M 8,64 l 8,0 0,8 -8,0 z M 16,64 l 8,0 0,8 -8,0 z M 24,64 l 8,0 0,8 -8,0 z M 32,64 l 8,0 0,8 -8,0 z M 48,64 l 8,0 0,8 -8,0 z M 56,64 l 8,0 0,8 -8,0 z M 64,64 l 8,0 0,8 -8,0 z M 88,64 l 8,0 0,8 -8,0 z M 104,64 l 8,0 0,8 -8,0 z M 120,64 l 8,0 0,8 -8,0 z M 136,64 l 8,0 0,8 -8,0 z M 152,64 l 8,0 0,8 -8,0 z M 16,72 l 8,0 0,8 -8,0 z M 24,72 l 8,0 0,8 -8,0 z M 40,72 l 8,0 0,8 -8,0 z M 56,72 l 8,0 0,8 -8,0 z M 64,72 l 8,0 0,8 -8,0 z M 72,72 l 8,0 0,8 -8,0 z M 80,72 l 8,0 0,8 -8,0 z M 88,72 l 8,0 0,8 -8,0 z M 96,72 l 8,0 0,8 -8,0 z M 104,72 l 8,0 0,8 -8,0 z M 128,72 l 8,0 0,8 -8,0 z M 136,72 l 8,0 0,8 -8,0 z M 144,72 l 8,0 0,8 -8,0 z M 160,72 l 8,0 0,8 -8,0 z M 0,80 l 8,0 0,8 -8,0 z M 16,80 l 8,0 0,8 -8,0 z M 24,80 l 8,0 0,8 -8,0 z M 32,80 l 8,0 0,8 -8,0 z M 48,80 l 8,0 0,8 -8,0 z M 56,80 l 8,0 0,8 -8,0 z M 64,80 l 8,0 0,8 -8,0 z M 96,80 l 8,0 0,8 -8,0 z M 136,80 l 8,0 0,8 -8,0 z M 152,80 l 8,0 0,8 -8,0 z M 16,88 l 8,0 0,8 -8,0 z M 32,88 l 8,0 0,8 -8,0 z M 40,88 l 8,0 0,8 -8,0 z M 56,88 l 8,0 0,8 -8,0 z M 72,88 l 8,0 0,8 -8,0 z M 88,88 l 8,0 0,8 -8,0 z M 96,88 l 8,0 0,8 -8,0 z M 104,88 l 8,0 0,8 -8,0 z M 128,88 l 8,0 0,8 -8,0 z M 136,88 l 8,0 0,8 -8,0 z M 144,88 l 8,0 0,8 -8,0 z M 152,88 l 8,0 0,8 -8,0 z M 8,96 l 8,0 0,8 -8,0 z M 16,96 l 8,0 0,8 -8,0 z M 32,96 l 8,0 0,8 -8,0 z M 48,96 l 8,0 0,8 -8,0 z M 56,96 l 8,0 0,8 -8,0 z M 64,96 l 8,0 0,8 -8,0 z M 72,96 l 8,0 0,8 -8,0 z M 96,96 l 8,0 0,8 -8,0 z M 104,96 l 8,0 0,8 -8,0 z M 112,96 l 8,0 0,8 -8,0 z M 128,96 l 8,0 0,8 -8,0 z M 64,104 l 8,0 0,8 -8,0 z M 72,104 l 8,0 0,8 -8,0 z M 96,104 l 8,0 0,8 -8,0 z M 104,104 l 8,0 0,8 -8,0 z M 120,104 l 8,0 0,8 -8,0 z M 0,112 l 8,0 0,8 -8,0 z M 8,112 l 8,0 0,8 -8,0 z M 16,112 l 8,0 0,8 -8,0 z M 24,112 l 8,0 0,8 -8,0 z M 32,112 l 8,0 0,8 -8,0 z M 40,112 l 8,0 0,8 -8,0 z M 48,112 l 8,0 0,8 -8,0 z M 64,112 l 8,0 0,8 -8,0 z M 72,112 l 8,0 0,8 -8,0 z M 88,112 l 8,0 0,8 -8,0 z M 136,112 l 8,0 0,8 -8,0 z M 144,112 l 8,0 0,8 -8,0 z M 152,112 l 8,0 0,8 -8,0 z M 0,120 l 8,0 0,8 -8,0 z M 48,120 l 8,0 0,8 -8,0 z M 72,120 l 8,0 0,8 -8,0 z M 104,120 l 8,0 0,8 -8,0 z M 120,120 l 8,0 0,8 -8,0 z M 136,120 l 8,0 0,8 -8,0 z M 144,120 l 8,0 0,8 -8,0 z M 152,120 l 8,0 0,8 -8,0 z M 160,120 l 8,0 0,8 -8,0 z M 0,128 l 8,0 0,8 -8,0 z M 16,128 l 8,0 0,8 -8,0 z M 24,128 l 8,0 0,8 -8,0 z M 32,128 l 8,0 0,8 -8,0 z M 48,128 l 8,0 0,8 -8,0 z M 64,128 l 8,0 0,8 -8,0 z M 88,128 l 8,0 0,8 -8,0 z M 112,128 l 8,0 0,8 -8,0 z M 120,128 l 8,0 0,8 -8,0 z M 160,128 l 8,0 0,8 -8,0 z M 0,136 l 8,0 0,8 -8,0 z M 16,136 l 8,0 0,8 -8,0 z M 24,136 l 8,0 0,8 -8,0 z M 32,136 l 8,0 0,8 -8,0 z M 48,136 l 8,0 0,8 -8,0 z M 64,136 l 8,0 0,8 -8,0 z M 72,136 l 8,0 0,8 -8,0 z M 80,136 l 8,0 0,8 -8,0 z M 96,136 l 8,0 0,8 -8,0 z M 104,136 l 8,0 0,8 -8,0 z M 120,136 l 8,0 0,8 -8,0 z M 128,136 l 8,0 0,8 -8,0 z M 136,136 l 8,0 0,8 -8,0 z M 0,144 l 8,0 0,8 -8,0 z M 16,144 l 8,0 0,8 -8,0 z M 24,144 l 8,0 0,8 -8,0 z M 32,144 l 8,0 0,8 -8,0 z M 48,144 l 8,0 0,8 -8,0 z M 64,144 l 8,0 0,8 -8,0 z M 72,144 l 8,0 0,8 -8,0 z M 96,144 l 8,0 0,8 -8,0 z M 104,144 l 8,0 0,8 -8,0 z M 120,144 l 8,0 0,8 -8,0 z M 144,144 l 8,0 0,8 -8,0 z M 0,152 l 8,0 0,8 -8,0 z M 48,152 l 8,0 0,8 -8,0 z M 64,152 l 8,0 0,8 -8,0 z M 80,152 l 8,0 0,8 -8,0 z M 104,152 l 8,0 0,8 -8,0 z M 136,152 l 8,0 0,8 -8,0 z M 144,152 l 8,0 0,8 -8,0 z M 0,160 l 8,0 0,8 -8,0 z M 8,160 l 8,0 0,8 -8,0 z M 16,160 l 8,0 0,8 -8,0 z M 24,160 l 8,0 0,8 -8,0 z M 32,160 l 8,0 0,8 -8,0 z M 40,160 l 8,0 0,8 -8,0 z M 48,160 l 8,0 0,8 -8,0 z M 64,160 l 8,0 0,8 -8,0 z M 80,160 l 8,0 0,8 -8,0 z M 96,160 l 8,0 0,8 -8,0 z M 104,160 l 8,0 0,8 -8,0 z M 112,160 l 8,0 0,8 -8,0 z M 152,160 l 8,0 0,8 -8,0 z " />
	</g>
</svg>
